<svg xmlns="http://www.w3.org/2000/svg" width="48" height="16" version="1.1" viewBox="0 0 48 16"><g id="Entry-Points" fill="none" fill-rule="evenodd" stroke="none" stroke-width="1" opacity=".8"><g id="Mobile-Recommender-Entry-Points-V2" fill="#9E9E9E" fill-rule="nonzero" transform="translate(-290 -300)"><g id="Group-8" transform="translate(0 290)"><g id="Group-9-Copy" transform="rotate(-8 262.954 -2064.247)"><path id="Mileage?" d="M2.15 9.476V6.663l-.147-3.755 2.514 6.568h1.06l2.52-6.574-.147 3.761v2.813h1.477V.945H7.51L5.056 7.484 2.595.944H.673v8.532H2.15Zm9.697-7.236c.258 0 .457-.072.598-.214a.733.733 0 0 0 .21-.536.75.75 0 0 0-.21-.545c-.141-.145-.34-.217-.598-.217-.258 0-.456.072-.595.217a.756.756 0 0 0-.208.545c0 .214.07.393.208.536.139.142.337.214.595.214Zm.709 7.236v-6.34h-1.424v6.34h1.424Zm3.064 0v-9h-1.424v9h1.424Zm4.342.117c.527 0 1.003-.104 1.427-.313a2.563 2.563 0 0 0 1.016-.882l-.767-.733c-.41.528-.942.791-1.594.791-.465 0-.85-.152-1.157-.457-.307-.304-.482-.718-.525-1.242h4.143v-.574c0-1.008-.235-1.787-.706-2.338-.47-.55-1.138-.826-2.001-.826-.543 0-1.035.139-1.477.416a2.787 2.787 0 0 0-1.028 1.163c-.244.498-.366 1.063-.366 1.696v.176c0 .945.28 1.702.84 2.27.561.569 1.293.853 2.195.853ZM21.1 5.714h-2.713c.066-.488.22-.869.46-1.142.24-.274.556-.41.946-.41.395 0 .703.122.926.366.223.244.35.604.38 1.08v.106Zm4.47 3.88c.657 0 1.211-.237 1.665-.71.046.274.101.47.164.592h1.453v-.1c-.16-.34-.24-.795-.24-1.365v-2.86c-.012-.675-.239-1.2-.68-1.573-.442-.373-1.033-.56-1.776-.56-.488 0-.93.087-1.327.259-.396.172-.71.409-.94.712a1.58 1.58 0 0 0-.346.975h1.424c0-.25.104-.456.31-.618.208-.162.473-.243.797-.243.375 0 .655.098.838.296.184.197.276.46.276.788v.416h-.873c-.934 0-1.652.18-2.154.542-.502.361-.753.88-.753 1.556 0 .535.202.984.604 1.347.402.363.922.545 1.559.545Zm.264-1.143c-.305 0-.548-.082-.73-.244-.18-.162-.272-.38-.272-.653 0-.336.133-.596.399-.78.265-.183.662-.275 1.19-.275h.767v1.196a1.37 1.37 0 0 1-.56.55 1.62 1.62 0 0 1-.794.206Zm6.738 3.521c.88 0 1.578-.24 2.095-.72.518-.481.777-1.137.777-1.97V3.137h-1.284l-.064.639c-.414-.504-.983-.756-1.705-.756-.766 0-1.38.294-1.843.882-.463.588-.694 1.374-.694 2.358 0 1.043.235 1.86.706 2.45.47.59 1.077.884 1.82.884.683 0 1.23-.228 1.64-.685v.427c0 .496-.137.872-.41 1.128-.274.256-.647.384-1.12.384-.64 0-1.18-.26-1.617-.78l-.674.856c.23.313.568.566 1.011.759.444.193.898.29 1.362.29Zm.17-3.54c-.46 0-.82-.182-1.08-.547-.26-.365-.39-.866-.39-1.503 0-.722.13-1.27.39-1.64.26-.372.623-.557 1.092-.557.574 0 .996.24 1.266.72v2.79c-.278.492-.703.738-1.278.738Zm6.955 1.161c.528 0 1.003-.104 1.427-.313a2.563 2.563 0 0 0 1.017-.882l-.768-.733c-.41.528-.941.791-1.594.791-.464 0-.85-.152-1.157-.457-.306-.304-.481-.718-.524-1.242h4.142v-.574c0-1.008-.235-1.787-.706-2.338-.47-.55-1.137-.826-2-.826-.544 0-1.036.139-1.477.416a2.787 2.787 0 0 0-1.028 1.163c-.245.498-.367 1.063-.367 1.696v.176c0 .945.28 1.702.841 2.27.56.569 1.292.853 2.194.853Zm1.137-3.879H38.12c.067-.488.22-.869.46-1.142.24-.274.556-.41.947-.41.394 0 .703.122.925.366.223.244.35.604.381 1.08v.106Zm5.162 1.254c.008-.562.14-.99.399-1.283l.72-.71c.594-.616.891-1.243.891-1.88 0-.715-.22-1.271-.66-1.67-.439-.398-1.05-.598-1.836-.598-.762 0-1.374.202-1.837.604-.463.402-.698.95-.706 1.64h1.424c0-.324.102-.58.307-.77.206-.19.476-.284.812-.284.352 0 .618.097.8.29.181.193.272.474.272.84 0 .278-.078.536-.234.774-.102.156-.343.42-.724.788-.38.37-.636.708-.764 1.017-.13.309-.194.723-.194 1.242h1.33Zm-.627 2.578c.258 0 .457-.072.598-.217a.742.742 0 0 0 .21-.539.756.756 0 0 0-.216-.553c-.144-.147-.342-.22-.592-.22-.246 0-.441.071-.586.214a.751.751 0 0 0-.216.56c0 .214.069.394.208.538.138.145.337.217.594.217Z"/></g></g></g></g></svg>